<svg xmlns="http://www.w3.org/2000/svg" version="1.1" xmlns:xlink="http://www.w3.org/1999/xlink" xmlns:svgjs="http://svgjs.dev/svgjs" width="1440" height="560" preserveAspectRatio="none" viewBox="0 0 1440 560"><g mask="url(&quot;#SvgjsMask2701&quot;)" fill="none"><rect width="1440" height="560" x="0" y="0" fill="url(&quot;#SvgjsLinearGradient2702&quot;)"></rect><path d="M-103.37 370.07L-103.37 370.07" stroke="rgba(255, 255, 255, 1)" stroke-width="1.5"></path><path d="M-103.37 370.07L-94.63 537.24" stroke="rgba(255, 255, 255, 1)" stroke-width="1.5"></path><path d="M-103.37 370.07L90.25 405.93" stroke="rgba(255, 255, 255, 1)" stroke-width="1.5"></path><path d="M-103.37 370.07L60.59 496.15" stroke="rgba(255, 255, 255, 1)" stroke-width="1.5"></path><path d="M-103.37 370.07L218.66 353.71" stroke="rgba(255, 255, 255, 1)" stroke-width="1.5"></path><path d="M-94.63 537.24L-94.63 537.24" stroke="rgba(255, 255, 255, 1)" stroke-width="1.5"></path><path d="M-94.63 537.24L60.59 496.15" stroke="rgba(255, 255, 255, 1)" stroke-width="1.5"></path><path d="M-94.63 537.24L90.25 405.93" stroke="rgba(255, 255, 255, 1)" stroke-width="1.5"></path><path d="M90.25 405.93L90.25 405.93" stroke="rgba(255, 255, 255, 1)" stroke-width="1.5"></path><path d="M90.25 405.93L60.59 496.15" stroke="rgba(255, 255, 255, 1)" stroke-width="1.5"></path><path d="M90.25 405.93L218.66 353.71" stroke="rgba(255, 255, 255, 1)" stroke-width="1.5"></path><path d="M90.25 405.93L223.63 540.64" stroke="rgba(255, 255, 255, 1)" stroke-width="1.5"></path><path d="M60.59 496.15L60.59 496.15" stroke="rgba(255, 255, 255, 1)" stroke-width="1.5"></path><path d="M95.06 672.62L95.06 672.62" stroke="rgba(255, 255, 255, 1)" stroke-width="1.5"></path><path d="M95.06 672.62L192.47 693.57" stroke="rgba(255, 255, 255, 1)" stroke-width="1.5"></path><path d="M95.06 672.62L60.59 496.15" stroke="rgba(255, 255, 255, 1)" stroke-width="1.5"></path><path d="M218.66 353.71L218.66 353.71" stroke="rgba(255, 255, 255, 1)" stroke-width="1.5"></path><path d="M223.63 540.64L223.63 540.64" stroke="rgba(255, 255, 255, 1)" stroke-width="1.5"></path><path d="M223.63 540.64L192.47 693.57" stroke="rgba(255, 255, 255, 1)" stroke-width="1.5"></path><path d="M223.63 540.64L60.59 496.15" stroke="rgba(255, 255, 255, 1)" stroke-width="1.5"></path><path d="M223.63 540.64L398.32 546.76" stroke="rgba(255, 255, 255, 1)" stroke-width="1.5"></path><path d="M223.63 540.64L95.06 672.62" stroke="rgba(255, 255, 255, 1)" stroke-width="1.5"></path><path d="M192.47 693.57L192.47 693.57" stroke="rgba(255, 255, 255, 1)" stroke-width="1.5"></path><path d="M192.47 693.57L400.64 703.13" stroke="rgba(255, 255, 255, 1)" stroke-width="1.5"></path><path d="M192.47 693.57L60.59 496.15" stroke="rgba(255, 255, 255, 1)" stroke-width="1.5"></path><path d="M192.47 693.57L398.32 546.76" stroke="rgba(255, 255, 255, 1)" stroke-width="1.5"></path><path d="M371.36 404.94L371.36 404.94" stroke="rgba(255, 255, 255, 1)" stroke-width="1.5"></path><path d="M371.36 404.94L502.83 383.5" stroke="rgba(255, 255, 255, 1)" stroke-width="1.5"></path><path d="M371.36 404.94L398.32 546.76" stroke="rgba(255, 255, 255, 1)" stroke-width="1.5"></path><path d="M371.36 404.94L218.66 353.71" stroke="rgba(255, 255, 255, 1)" stroke-width="1.5"></path><path d="M371.36 404.94L223.63 540.64" stroke="rgba(255, 255, 255, 1)" stroke-width="1.5"></path><path d="M371.36 404.94L531.69 557.41" stroke="rgba(255, 255, 255, 1)" stroke-width="1.5"></path><path d="M398.32 546.76L398.32 546.76" stroke="rgba(255, 255, 255, 1)" stroke-width="1.5"></path><path d="M398.32 546.76L531.69 557.41" stroke="rgba(255, 255, 255, 1)" stroke-width="1.5"></path><path d="M398.32 546.76L400.64 703.13" stroke="rgba(255, 255, 255, 1)" stroke-width="1.5"></path><path d="M398.32 546.76L538.37 665.17" stroke="rgba(255, 255, 255, 1)" stroke-width="1.5"></path><path d="M398.32 546.76L502.83 383.5" stroke="rgba(255, 255, 255, 1)" stroke-width="1.5"></path><path d="M400.64 703.13L400.64 703.13" stroke="rgba(255, 255, 255, 1)" stroke-width="1.5"></path><path d="M400.64 703.13L538.37 665.17" stroke="rgba(255, 255, 255, 1)" stroke-width="1.5"></path><path d="M400.64 703.13L531.69 557.41" stroke="rgba(255, 255, 255, 1)" stroke-width="1.5"></path><path d="M502.83 383.5L502.83 383.5" stroke="rgba(255, 255, 255, 1)" stroke-width="1.5"></path><path d="M502.83 383.5L642.27 386.41" stroke="rgba(255, 255, 255, 1)" stroke-width="1.5"></path><path d="M502.83 383.5L531.69 557.41" stroke="rgba(255, 255, 255, 1)" stroke-width="1.5"></path><path d="M502.83 383.5L638.52 523.42" stroke="rgba(255, 255, 255, 1)" stroke-width="1.5"></path><path d="M531.69 557.41L531.69 557.41" stroke="rgba(255, 255, 255, 1)" stroke-width="1.5"></path><path d="M531.69 557.41L538.37 665.17" stroke="rgba(255, 255, 255, 1)" stroke-width="1.5"></path><path d="M531.69 557.41L638.52 523.42" stroke="rgba(255, 255, 255, 1)" stroke-width="1.5"></path><path d="M538.37 665.17L538.37 665.17" stroke="rgba(255, 255, 255, 1)" stroke-width="1.5"></path><path d="M538.37 665.17L660.28 659.12" stroke="rgba(255, 255, 255, 1)" stroke-width="1.5"></path><path d="M662.6 259.07L662.6 259.07" stroke="rgba(255, 255, 255, 1)" stroke-width="1.5"></path><path d="M662.6 259.07L642.27 386.41" stroke="rgba(255, 255, 255, 1)" stroke-width="1.5"></path><path d="M662.6 259.07L788.36 362.59" stroke="rgba(255, 255, 255, 1)" stroke-width="1.5"></path><path d="M662.6 259.07L833.99 240.24" stroke="rgba(255, 255, 255, 1)" stroke-width="1.5"></path><path d="M662.6 259.07L502.83 383.5" stroke="rgba(255, 255, 255, 1)" stroke-width="1.5"></path><path d="M662.6 259.07L638.52 523.42" stroke="rgba(255, 255, 255, 1)" stroke-width="1.5"></path><path d="M642.27 386.41L642.27 386.41" stroke="rgba(255, 255, 255, 1)" stroke-width="1.5"></path><path d="M642.27 386.41L638.52 523.42" stroke="rgba(255, 255, 255, 1)" stroke-width="1.5"></path><path d="M638.52 523.42L638.52 523.42" stroke="rgba(255, 255, 255, 1)" stroke-width="1.5"></path><path d="M638.52 523.42L660.28 659.12" stroke="rgba(255, 255, 255, 1)" stroke-width="1.5"></path><path d="M638.52 523.42L538.37 665.17" stroke="rgba(255, 255, 255, 1)" stroke-width="1.5"></path><path d="M638.52 523.42L812.22 511.01" stroke="rgba(255, 255, 255, 1)" stroke-width="1.5"></path><path d="M660.28 659.12L660.28 659.12" stroke="rgba(255, 255, 255, 1)" stroke-width="1.5"></path><path d="M660.28 659.12L531.69 557.41" stroke="rgba(255, 255, 255, 1)" stroke-width="1.5"></path><path d="M833.99 240.24L833.99 240.24" stroke="rgba(255, 255, 255, 1)" stroke-width="1.5"></path><path d="M833.99 240.24L788.36 362.59" stroke="rgba(255, 255, 255, 1)" stroke-width="1.5"></path><path d="M833.99 240.24L980.63 244.72" stroke="rgba(255, 255, 255, 1)" stroke-width="1.5"></path><path d="M788.36 362.59L788.36 362.59" stroke="rgba(255, 255, 255, 1)" stroke-width="1.5"></path><path d="M788.36 362.59L642.27 386.41" stroke="rgba(255, 255, 255, 1)" stroke-width="1.5"></path><path d="M788.36 362.59L812.22 511.01" stroke="rgba(255, 255, 255, 1)" stroke-width="1.5"></path><path d="M812.22 511.01L812.22 511.01" stroke="rgba(255, 255, 255, 1)" stroke-width="1.5"></path><path d="M812.22 511.01L851.69 671.06" stroke="rgba(255, 255, 255, 1)" stroke-width="1.5"></path><path d="M812.22 511.01L1009.66 491.45" stroke="rgba(255, 255, 255, 1)" stroke-width="1.5"></path><path d="M812.22 511.01L642.27 386.41" stroke="rgba(255, 255, 255, 1)" stroke-width="1.5"></path><path d="M812.22 511.01L660.28 659.12" stroke="rgba(255, 255, 255, 1)" stroke-width="1.5"></path><path d="M851.69 671.06L851.69 671.06" stroke="rgba(255, 255, 255, 1)" stroke-width="1.5"></path><path d="M851.69 671.06L951.66 689.89" stroke="rgba(255, 255, 255, 1)" stroke-width="1.5"></path><path d="M978.88 -63.81L978.88 -63.81" stroke="rgba(255, 255, 255, 1)" stroke-width="1.5"></path><path d="M978.88 -63.81L989.13 95.09" stroke="rgba(255, 255, 255, 1)" stroke-width="1.5"></path><path d="M978.88 -63.81L1153.2 -66.06" stroke="rgba(255, 255, 255, 1)" stroke-width="1.5"></path><path d="M978.88 -63.81L1130.9 60.37" stroke="rgba(255, 255, 255, 1)" stroke-width="1.5"></path><path d="M978.88 -63.81L1248.64 -86.68" stroke="rgba(255, 255, 255, 1)" stroke-width="1.5"></path><path d="M978.88 -63.81L980.63 244.72" stroke="rgba(255, 255, 255, 1)" stroke-width="1.5"></path><path d="M978.88 -63.81L1103.33 219.87" stroke="rgba(255, 255, 255, 1)" stroke-width="1.5"></path><path d="M989.13 95.09L989.13 95.09" stroke="rgba(255, 255, 255, 1)" stroke-width="1.5"></path><path d="M989.13 95.09L1130.9 60.37" stroke="rgba(255, 255, 255, 1)" stroke-width="1.5"></path><path d="M989.13 95.09L980.63 244.72" stroke="rgba(255, 255, 255, 1)" stroke-width="1.5"></path><path d="M989.13 95.09L1103.33 219.87" stroke="rgba(255, 255, 255, 1)" stroke-width="1.5"></path><path d="M980.63 244.72L980.63 244.72" stroke="rgba(255, 255, 255, 1)" stroke-width="1.5"></path><path d="M980.63 244.72L1103.33 219.87" stroke="rgba(255, 255, 255, 1)" stroke-width="1.5"></path><path d="M980.63 244.72L983.2 382.52" stroke="rgba(255, 255, 255, 1)" stroke-width="1.5"></path><path d="M980.63 244.72L1150.81 375.03" stroke="rgba(255, 255, 255, 1)" stroke-width="1.5"></path><path d="M980.63 244.72L788.36 362.59" stroke="rgba(255, 255, 255, 1)" stroke-width="1.5"></path><path d="M983.2 382.52L983.2 382.52" stroke="rgba(255, 255, 255, 1)" stroke-width="1.5"></path><path d="M983.2 382.52L1009.66 491.45" stroke="rgba(255, 255, 255, 1)" stroke-width="1.5"></path><path d="M1009.66 491.45L1009.66 491.45" stroke="rgba(255, 255, 255, 1)" stroke-width="1.5"></path><path d="M1009.66 491.45L1107.22 524.36" stroke="rgba(255, 255, 255, 1)" stroke-width="1.5"></path><path d="M951.66 689.89L951.66 689.89" stroke="rgba(255, 255, 255, 1)" stroke-width="1.5"></path><path d="M951.66 689.89L1110.44 680.04" stroke="rgba(255, 255, 255, 1)" stroke-width="1.5"></path><path d="M1153.2 -66.06L1153.2 -66.06" stroke="rgba(255, 255, 255, 1)" stroke-width="1.5"></path><path d="M1153.2 -66.06L1248.64 -86.68" stroke="rgba(255, 255, 255, 1)" stroke-width="1.5"></path><path d="M1153.2 -66.06L1130.9 60.37" stroke="rgba(255, 255, 255, 1)" stroke-width="1.5"></path><path d="M1153.2 -66.06L989.13 95.09" stroke="rgba(255, 255, 255, 1)" stroke-width="1.5"></path><path d="M1130.9 60.37L1130.9 60.37" stroke="rgba(255, 255, 255, 1)" stroke-width="1.5"></path><path d="M1130.9 60.37L1103.33 219.87" stroke="rgba(255, 255, 255, 1)" stroke-width="1.5"></path><path d="M1130.9 60.37L1248.64 -86.68" stroke="rgba(255, 255, 255, 1)" stroke-width="1.5"></path><path d="M1130.9 60.37L980.63 244.72" stroke="rgba(255, 255, 255, 1)" stroke-width="1.5"></path><path d="M1103.33 219.87L1103.33 219.87" stroke="rgba(255, 255, 255, 1)" stroke-width="1.5"></path><path d="M1103.33 219.87L1150.81 375.03" stroke="rgba(255, 255, 255, 1)" stroke-width="1.5"></path><path d="M1150.81 375.03L1150.81 375.03" stroke="rgba(255, 255, 255, 1)" stroke-width="1.5"></path><path d="M1150.81 375.03L1239.86 371.39" stroke="rgba(255, 255, 255, 1)" stroke-width="1.5"></path><path d="M1150.81 375.03L1107.22 524.36" stroke="rgba(255, 255, 255, 1)" stroke-width="1.5"></path><path d="M1107.22 524.36L1107.22 524.36" stroke="rgba(255, 255, 255, 1)" stroke-width="1.5"></path><path d="M1110.44 680.04L1110.44 680.04" stroke="rgba(255, 255, 255, 1)" stroke-width="1.5"></path><path d="M1110.44 680.04L1107.22 524.36" stroke="rgba(255, 255, 255, 1)" stroke-width="1.5"></path><path d="M1110.44 680.04L1270.22 665.86" stroke="rgba(255, 255, 255, 1)" stroke-width="1.5"></path><path d="M1110.44 680.04L1009.66 491.45" stroke="rgba(255, 255, 255, 1)" stroke-width="1.5"></path><path d="M1110.44 680.04L851.69 671.06" stroke="rgba(255, 255, 255, 1)" stroke-width="1.5"></path><path d="M1110.44 680.04L1311.51 496.65" stroke="rgba(255, 255, 255, 1)" stroke-width="1.5"></path><path d="M1248.64 -86.68L1248.64 -86.68" stroke="rgba(255, 255, 255, 1)" stroke-width="1.5"></path><path d="M1248.64 -86.68L1445.78 -37.56" stroke="rgba(255, 255, 255, 1)" stroke-width="1.5"></path><path d="M1248.64 -86.68L1451.43 101.55" stroke="rgba(255, 255, 255, 1)" stroke-width="1.5"></path><path d="M1293.63 235.97L1293.63 235.97" stroke="rgba(255, 255, 255, 1)" stroke-width="1.5"></path><path d="M1293.63 235.97L1395.49 261.38" stroke="rgba(255, 255, 255, 1)" stroke-width="1.5"></path><path d="M1293.63 235.97L1239.86 371.39" stroke="rgba(255, 255, 255, 1)" stroke-width="1.5"></path><path d="M1293.63 235.97L1103.33 219.87" stroke="rgba(255, 255, 255, 1)" stroke-width="1.5"></path><path d="M1293.63 235.97L1451.22 347.12" stroke="rgba(255, 255, 255, 1)" stroke-width="1.5"></path><path d="M1293.63 235.97L1150.81 375.03" stroke="rgba(255, 255, 255, 1)" stroke-width="1.5"></path><path d="M1239.86 371.39L1239.86 371.39" stroke="rgba(255, 255, 255, 1)" stroke-width="1.5"></path><path d="M1239.86 371.39L1311.51 496.65" stroke="rgba(255, 255, 255, 1)" stroke-width="1.5"></path><path d="M1311.51 496.65L1311.51 496.65" stroke="rgba(255, 255, 255, 1)" stroke-width="1.5"></path><path d="M1311.51 496.65L1421.07 529.32" stroke="rgba(255, 255, 255, 1)" stroke-width="1.5"></path><path d="M1311.51 496.65L1270.22 665.86" stroke="rgba(255, 255, 255, 1)" stroke-width="1.5"></path><path d="M1311.51 496.65L1423.93 658.08" stroke="rgba(255, 255, 255, 1)" stroke-width="1.5"></path><path d="M1270.22 665.86L1270.22 665.86" stroke="rgba(255, 255, 255, 1)" stroke-width="1.5"></path><path d="M1270.22 665.86L1423.93 658.08" stroke="rgba(255, 255, 255, 1)" stroke-width="1.5"></path><path d="M1270.22 665.86L1421.07 529.32" stroke="rgba(255, 255, 255, 1)" stroke-width="1.5"></path><path d="M1445.78 -37.56L1445.78 -37.56" stroke="rgba(255, 255, 255, 1)" stroke-width="1.5"></path><path d="M1445.78 -37.56L1547.64 38.12" stroke="rgba(255, 255, 255, 1)" stroke-width="1.5"></path><path d="M1445.78 -37.56L1451.43 101.55" stroke="rgba(255, 255, 255, 1)" stroke-width="1.5"></path><path d="M1445.78 -37.56L1607.73 -54.85" stroke="rgba(255, 255, 255, 1)" stroke-width="1.5"></path><path d="M1451.43 101.55L1451.43 101.55" stroke="rgba(255, 255, 255, 1)" stroke-width="1.5"></path><path d="M1451.43 101.55L1547.64 38.12" stroke="rgba(255, 255, 255, 1)" stroke-width="1.5"></path><path d="M1395.49 261.38L1395.49 261.38" stroke="rgba(255, 255, 255, 1)" stroke-width="1.5"></path><path d="M1395.49 261.38L1451.22 347.12" stroke="rgba(255, 255, 255, 1)" stroke-width="1.5"></path><path d="M1395.49 261.38L1451.43 101.55" stroke="rgba(255, 255, 255, 1)" stroke-width="1.5"></path><path d="M1395.49 261.38L1551.66 361.21" stroke="rgba(255, 255, 255, 1)" stroke-width="1.5"></path><path d="M1395.49 261.38L1578.41 224.14" stroke="rgba(255, 255, 255, 1)" stroke-width="1.5"></path><path d="M1395.49 261.38L1239.86 371.39" stroke="rgba(255, 255, 255, 1)" stroke-width="1.5"></path><path d="M1451.22 347.12L1451.22 347.12" stroke="rgba(255, 255, 255, 1)" stroke-width="1.5"></path><path d="M1451.22 347.12L1551.66 361.21" stroke="rgba(255, 255, 255, 1)" stroke-width="1.5"></path><path d="M1451.22 347.12L1578.41 224.14" stroke="rgba(255, 255, 255, 1)" stroke-width="1.5"></path><path d="M1451.22 347.12L1421.07 529.32" stroke="rgba(255, 255, 255, 1)" stroke-width="1.5"></path><path d="M1421.07 529.32L1421.07 529.32" stroke="rgba(255, 255, 255, 1)" stroke-width="1.5"></path><path d="M1421.07 529.32L1423.93 658.08" stroke="rgba(255, 255, 255, 1)" stroke-width="1.5"></path><path d="M1421.07 529.32L1551.66 361.21" stroke="rgba(255, 255, 255, 1)" stroke-width="1.5"></path><path d="M1421.07 529.32L1592.4 681.55" stroke="rgba(255, 255, 255, 1)" stroke-width="1.5"></path><path d="M1423.93 658.08L1423.93 658.08" stroke="rgba(255, 255, 255, 1)" stroke-width="1.5"></path><path d="M1423.93 658.08L1592.4 681.55" stroke="rgba(255, 255, 255, 1)" stroke-width="1.5"></path><path d="M1423.93 658.08L1451.22 347.12" stroke="rgba(255, 255, 255, 1)" stroke-width="1.5"></path><path d="M1607.73 -54.85L1607.73 -54.85" stroke="rgba(255, 255, 255, 1)" stroke-width="1.5"></path><path d="M1607.73 -54.85L1547.64 38.12" stroke="rgba(255, 255, 255, 1)" stroke-width="1.5"></path><path d="M1607.73 -54.85L1451.43 101.55" stroke="rgba(255, 255, 255, 1)" stroke-width="1.5"></path><path d="M1607.73 -54.85L1578.41 224.14" stroke="rgba(255, 255, 255, 1)" stroke-width="1.5"></path><path d="M1607.73 -54.85L1248.64 -86.68" stroke="rgba(255, 255, 255, 1)" stroke-width="1.5"></path><path d="M1547.64 38.12L1547.64 38.12" stroke="rgba(255, 255, 255, 1)" stroke-width="1.5"></path><path d="M1578.41 224.14L1578.41 224.14" stroke="rgba(255, 255, 255, 1)" stroke-width="1.5"></path><path d="M1578.41 224.14L1551.66 361.21" stroke="rgba(255, 255, 255, 1)" stroke-width="1.5"></path><path d="M1578.41 224.14L1451.43 101.55" stroke="rgba(255, 255, 255, 1)" stroke-width="1.5"></path><path d="M1551.66 361.21L1551.66 361.21" stroke="rgba(255, 255, 255, 1)" stroke-width="1.5"></path><path d="M1592.4 681.55L1592.4 681.55" stroke="rgba(255, 255, 255, 1)" stroke-width="1.5"></path><path d="M1592.4 681.55L1270.22 665.86" stroke="rgba(255, 255, 255, 1)" stroke-width="1.5"></path><circle r="5" cx="-103.37" cy="370.07" fill="rgba(255, 255, 255, 1)"></circle><circle r="5" cx="-94.63" cy="537.24" fill="rgba(255, 255, 255, 1)"></circle><circle r="5" cx="90.25" cy="405.93" fill="rgba(255, 255, 255, 1)"></circle><circle r="5" cx="60.59" cy="496.15" fill="rgba(255, 255, 255, 1)"></circle><circle r="5" cx="95.06" cy="672.62" fill="rgba(255, 255, 255, 1)"></circle><circle r="5" cx="218.66" cy="353.71" fill="rgba(255, 255, 255, 1)"></circle><circle r="5" cx="223.63" cy="540.64" fill="rgba(255, 255, 255, 1)"></circle><circle r="5" cx="192.47" cy="693.57" fill="rgba(255, 255, 255, 1)"></circle><circle r="5" cx="371.36" cy="404.94" fill="rgba(255, 255, 255, 1)"></circle><circle r="5" cx="398.32" cy="546.76" fill="rgba(255, 255, 255, 1)"></circle><circle r="5" cx="400.64" cy="703.13" fill="rgba(255, 255, 255, 1)"></circle><circle r="5" cx="502.83" cy="383.5" fill="rgba(255, 255, 255, 1)"></circle><circle r="5" cx="531.69" cy="557.41" fill="rgba(255, 255, 255, 1)"></circle><circle r="5" cx="538.37" cy="665.17" fill="rgba(255, 255, 255, 1)"></circle><circle r="5" cx="662.6" cy="259.07" fill="rgba(255, 255, 255, 1)"></circle><circle r="5" cx="642.27" cy="386.41" fill="rgba(255, 255, 255, 1)"></circle><circle r="5" cx="638.52" cy="523.42" fill="rgba(255, 255, 255, 1)"></circle><circle r="5" cx="660.28" cy="659.12" fill="rgba(255, 255, 255, 1)"></circle><circle r="5" cx="833.99" cy="240.24" fill="rgba(255, 255, 255, 1)"></circle><circle r="5" cx="788.36" cy="362.59" fill="rgba(255, 255, 255, 1)"></circle><circle r="5" cx="812.22" cy="511.01" fill="rgba(255, 255, 255, 1)"></circle><circle r="5" cx="851.69" cy="671.06" fill="rgba(255, 255, 255, 1)"></circle><circle r="5" cx="978.88" cy="-63.81" fill="rgba(255, 255, 255, 1)"></circle><circle r="5" cx="989.13" cy="95.09" fill="rgba(255, 255, 255, 1)"></circle><circle r="5" cx="980.63" cy="244.72" fill="rgba(255, 255, 255, 1)"></circle><circle r="5" cx="983.2" cy="382.52" fill="rgba(255, 255, 255, 1)"></circle><circle r="5" cx="1009.66" cy="491.45" fill="rgba(255, 255, 255, 1)"></circle><circle r="5" cx="951.66" cy="689.89" fill="rgba(255, 255, 255, 1)"></circle><circle r="5" cx="1153.2" cy="-66.06" fill="rgba(255, 255, 255, 1)"></circle><circle r="5" cx="1130.9" cy="60.37" fill="rgba(255, 255, 255, 1)"></circle><circle r="5" cx="1103.33" cy="219.87" fill="rgba(255, 255, 255, 1)"></circle><circle r="5" cx="1150.81" cy="375.03" fill="rgba(255, 255, 255, 1)"></circle><circle r="5" cx="1107.22" cy="524.36" fill="rgba(255, 255, 255, 1)"></circle><circle r="5" cx="1110.44" cy="680.04" fill="rgba(255, 255, 255, 1)"></circle><circle r="5" cx="1248.64" cy="-86.68" fill="rgba(255, 255, 255, 1)"></circle><circle r="5" cx="1293.63" cy="235.97" fill="rgba(255, 255, 255, 1)"></circle><circle r="5" cx="1239.86" cy="371.39" fill="rgba(255, 255, 255, 1)"></circle><circle r="5" cx="1311.51" cy="496.65" fill="rgba(255, 255, 255, 1)"></circle><circle r="5" cx="1270.22" cy="665.86" fill="rgba(255, 255, 255, 1)"></circle><circle r="5" cx="1445.78" cy="-37.56" fill="rgba(255, 255, 255, 1)"></circle><circle r="5" cx="1451.43" cy="101.55" fill="rgba(255, 255, 255, 1)"></circle><circle r="5" cx="1395.49" cy="261.38" fill="rgba(255, 255, 255, 1)"></circle><circle r="5" cx="1451.22" cy="347.12" fill="rgba(255, 255, 255, 1)"></circle><circle r="5" cx="1421.07" cy="529.32" fill="rgba(255, 255, 255, 1)"></circle><circle r="5" cx="1423.93" cy="658.08" fill="rgba(255, 255, 255, 1)"></circle><circle r="5" cx="1607.73" cy="-54.85" fill="rgba(255, 255, 255, 1)"></circle><circle r="5" cx="1547.64" cy="38.12" fill="rgba(255, 255, 255, 1)"></circle><circle r="5" cx="1578.41" cy="224.14" fill="rgba(255, 255, 255, 1)"></circle><circle r="5" cx="1551.66" cy="361.21" fill="rgba(255, 255, 255, 1)"></circle><circle r="5" cx="1592.4" cy="681.55" fill="rgba(255, 255, 255, 1)"></circle><path d="M59.86 534.58L59.86 534.58" stroke="hsl(359.29999999999995, 68.6%, 61.7%)" stroke-width="1.5"></path><path d="M59.86 534.58L-50.48 522.42" stroke="hsl(359.29999999999995, 68.6%, 61.7%)" stroke-width="1.5"></path><path d="M59.86 534.58L194.67 496.23" stroke="hsl(359.29999999999995, 68.6%, 61.7%)" stroke-width="1.5"></path><path d="M59.86 534.58L39.86 694.27" stroke="hsl(359.29999999999995, 68.6%, 61.7%)" stroke-width="1.5"></path><path d="M59.86 534.58L192.7 654.83" stroke="hsl(359.29999999999995, 68.6%, 61.7%)" stroke-width="1.5"></path><path d="M59.86 534.58L-63.92 694.51" stroke="hsl(359.29999999999995, 68.6%, 61.7%)" stroke-width="1.5"></path><path d="M531.24 399.68L531.24 399.68" stroke="hsl(359.29999999999995, 68.6%, 61.7%)" stroke-width="1.5"></path><path d="M531.24 399.68L545.35 542.58" stroke="hsl(359.29999999999995, 68.6%, 61.7%)" stroke-width="1.5"></path><path d="M531.24 399.68L689.6 399.19" stroke="hsl(359.29999999999995, 68.6%, 61.7%)" stroke-width="1.5"></path><path d="M531.24 399.68L380.57 493.39" stroke="hsl(359.29999999999995, 68.6%, 61.7%)" stroke-width="1.5"></path><path d="M531.24 399.68L697.46 543.6" stroke="hsl(359.29999999999995, 68.6%, 61.7%)" stroke-width="1.5"></path><path d="M531.24 399.68L557.53 662.93" stroke="hsl(359.29999999999995, 68.6%, 61.7%)" stroke-width="1.5"></path><path d="M689.6 399.19L689.6 399.19" stroke="hsl(359.29999999999995, 68.6%, 61.7%)" stroke-width="1.5"></path><path d="M689.6 399.19L811.07 385.88" stroke="hsl(359.29999999999995, 68.6%, 61.7%)" stroke-width="1.5"></path><path d="M689.6 399.19L697.46 543.6" stroke="hsl(359.29999999999995, 68.6%, 61.7%)" stroke-width="1.5"></path><path d="M689.6 399.19L545.35 542.58" stroke="hsl(359.29999999999995, 68.6%, 61.7%)" stroke-width="1.5"></path><path d="M689.6 399.19L860.01 546.24" stroke="hsl(359.29999999999995, 68.6%, 61.7%)" stroke-width="1.5"></path><path d="M689.6 399.19L938.52 343.51" stroke="hsl(359.29999999999995, 68.6%, 61.7%)" stroke-width="1.5"></path><path d="M811.07 385.88L811.07 385.88" stroke="hsl(359.29999999999995, 68.6%, 61.7%)" stroke-width="1.5"></path><path d="M811.07 385.88L938.52 343.51" stroke="hsl(359.29999999999995, 68.6%, 61.7%)" stroke-width="1.5"></path><path d="M1120.1 529.3L1120.1 529.3" stroke="hsl(359.29999999999995, 68.6%, 61.7%)" stroke-width="1.5"></path><path d="M1120.1 529.3L1150.92 640.65" stroke="hsl(359.29999999999995, 68.6%, 61.7%)" stroke-width="1.5"></path><path d="M1150.92 640.65L1150.92 640.65" stroke="hsl(359.29999999999995, 68.6%, 61.7%)" stroke-width="1.5"></path><path d="M1150.92 640.65L1308.95 655.61" stroke="hsl(359.29999999999995, 68.6%, 61.7%)" stroke-width="1.5"></path><path d="M1150.92 640.65L968.14 646.81" stroke="hsl(359.29999999999995, 68.6%, 61.7%)" stroke-width="1.5"></path><path d="M1150.92 640.65L992.89 491.28" stroke="hsl(359.29999999999995, 68.6%, 61.7%)" stroke-width="1.5"></path><path d="M1150.92 640.65L1120.02 388.55" stroke="hsl(359.29999999999995, 68.6%, 61.7%)" stroke-width="1.5"></path><path d="M1298.98 370.93L1298.98 370.93" stroke="hsl(359.29999999999995, 68.6%, 61.7%)" stroke-width="1.5"></path><path d="M1298.98 370.93L1393.03 392.09" stroke="hsl(359.29999999999995, 68.6%, 61.7%)" stroke-width="1.5"></path><path d="M1298.98 370.93L1238.74 248.58" stroke="hsl(359.29999999999995, 68.6%, 61.7%)" stroke-width="1.5"></path><path d="M1393.03 392.09L1393.03 392.09" stroke="hsl(359.29999999999995, 68.6%, 61.7%)" stroke-width="1.5"></path><path d="M1393.03 392.09L1453.35 496.41" stroke="hsl(359.29999999999995, 68.6%, 61.7%)" stroke-width="1.5"></path><path d="M1393.03 392.09L1555.91 409.39" stroke="hsl(359.29999999999995, 68.6%, 61.7%)" stroke-width="1.5"></path><path d="M1393.03 392.09L1461.63 229.64" stroke="hsl(359.29999999999995, 68.6%, 61.7%)" stroke-width="1.5"></path><path d="M1393.03 392.09L1544.74 530.91" stroke="hsl(359.29999999999995, 68.6%, 61.7%)" stroke-width="1.5"></path><path d="M1393.03 392.09L1238.74 248.58" stroke="hsl(359.29999999999995, 68.6%, 61.7%)" stroke-width="1.5"></path><path d="M-50.48 522.42L-50.48 522.42" stroke="hsl(359.29999999999995, 68.6%, 61.7%)" stroke-width="1.5"></path><path d="M-50.48 522.42L-63.92 694.51" stroke="hsl(359.29999999999995, 68.6%, 61.7%)" stroke-width="1.5"></path><path d="M-63.92 694.51L-63.92 694.51" stroke="hsl(359.29999999999995, 68.6%, 61.7%)" stroke-width="1.5"></path><path d="M-63.92 694.51L39.86 694.27" stroke="hsl(359.29999999999995, 68.6%, 61.7%)" stroke-width="1.5"></path><path d="M39.86 694.27L39.86 694.27" stroke="hsl(359.29999999999995, 68.6%, 61.7%)" stroke-width="1.5"></path><path d="M39.86 694.27L192.7 654.83" stroke="hsl(359.29999999999995, 68.6%, 61.7%)" stroke-width="1.5"></path><path d="M194.67 496.23L194.67 496.23" stroke="hsl(359.29999999999995, 68.6%, 61.7%)" stroke-width="1.5"></path><path d="M194.67 496.23L192.7 654.83" stroke="hsl(359.29999999999995, 68.6%, 61.7%)" stroke-width="1.5"></path><path d="M194.67 496.23L380.57 493.39" stroke="hsl(359.29999999999995, 68.6%, 61.7%)" stroke-width="1.5"></path><path d="M194.67 496.23L-50.48 522.42" stroke="hsl(359.29999999999995, 68.6%, 61.7%)" stroke-width="1.5"></path><path d="M194.67 496.23L39.86 694.27" stroke="hsl(359.29999999999995, 68.6%, 61.7%)" stroke-width="1.5"></path><path d="M194.67 496.23L388.88 709.5" stroke="hsl(359.29999999999995, 68.6%, 61.7%)" stroke-width="1.5"></path><path d="M192.7 654.83L192.7 654.83" stroke="hsl(359.29999999999995, 68.6%, 61.7%)" stroke-width="1.5"></path><path d="M192.7 654.83L388.88 709.5" stroke="hsl(359.29999999999995, 68.6%, 61.7%)" stroke-width="1.5"></path><path d="M192.7 654.83L380.57 493.39" stroke="hsl(359.29999999999995, 68.6%, 61.7%)" stroke-width="1.5"></path><path d="M380.57 493.39L380.57 493.39" stroke="hsl(359.29999999999995, 68.6%, 61.7%)" stroke-width="1.5"></path><path d="M380.57 493.39L545.35 542.58" stroke="hsl(359.29999999999995, 68.6%, 61.7%)" stroke-width="1.5"></path><path d="M388.88 709.5L388.88 709.5" stroke="hsl(359.29999999999995, 68.6%, 61.7%)" stroke-width="1.5"></path><path d="M388.88 709.5L557.53 662.93" stroke="hsl(359.29999999999995, 68.6%, 61.7%)" stroke-width="1.5"></path><path d="M388.88 709.5L380.57 493.39" stroke="hsl(359.29999999999995, 68.6%, 61.7%)" stroke-width="1.5"></path><path d="M388.88 709.5L545.35 542.58" stroke="hsl(359.29999999999995, 68.6%, 61.7%)" stroke-width="1.5"></path><path d="M545.35 542.58L545.35 542.58" stroke="hsl(359.29999999999995, 68.6%, 61.7%)" stroke-width="1.5"></path><path d="M545.35 542.58L557.53 662.93" stroke="hsl(359.29999999999995, 68.6%, 61.7%)" stroke-width="1.5"></path><path d="M557.53 662.93L557.53 662.93" stroke="hsl(359.29999999999995, 68.6%, 61.7%)" stroke-width="1.5"></path><path d="M557.53 662.93L703.16 679.62" stroke="hsl(359.29999999999995, 68.6%, 61.7%)" stroke-width="1.5"></path><path d="M557.53 662.93L697.46 543.6" stroke="hsl(359.29999999999995, 68.6%, 61.7%)" stroke-width="1.5"></path><path d="M697.46 543.6L697.46 543.6" stroke="hsl(359.29999999999995, 68.6%, 61.7%)" stroke-width="1.5"></path><path d="M697.46 543.6L703.16 679.62" stroke="hsl(359.29999999999995, 68.6%, 61.7%)" stroke-width="1.5"></path><path d="M697.46 543.6L545.35 542.58" stroke="hsl(359.29999999999995, 68.6%, 61.7%)" stroke-width="1.5"></path><path d="M697.46 543.6L860.01 546.24" stroke="hsl(359.29999999999995, 68.6%, 61.7%)" stroke-width="1.5"></path><path d="M703.16 679.62L703.16 679.62" stroke="hsl(359.29999999999995, 68.6%, 61.7%)" stroke-width="1.5"></path><path d="M703.16 679.62L792.36 702.87" stroke="hsl(359.29999999999995, 68.6%, 61.7%)" stroke-width="1.5"></path><path d="M703.16 679.62L860.01 546.24" stroke="hsl(359.29999999999995, 68.6%, 61.7%)" stroke-width="1.5"></path><path d="M860.01 546.24L860.01 546.24" stroke="hsl(359.29999999999995, 68.6%, 61.7%)" stroke-width="1.5"></path><path d="M860.01 546.24L992.89 491.28" stroke="hsl(359.29999999999995, 68.6%, 61.7%)" stroke-width="1.5"></path><path d="M860.01 546.24L968.14 646.81" stroke="hsl(359.29999999999995, 68.6%, 61.7%)" stroke-width="1.5"></path><path d="M792.36 702.87L792.36 702.87" stroke="hsl(359.29999999999995, 68.6%, 61.7%)" stroke-width="1.5"></path><path d="M792.36 702.87L860.01 546.24" stroke="hsl(359.29999999999995, 68.6%, 61.7%)" stroke-width="1.5"></path><path d="M792.36 702.87L968.14 646.81" stroke="hsl(359.29999999999995, 68.6%, 61.7%)" stroke-width="1.5"></path><path d="M792.36 702.87L697.46 543.6" stroke="hsl(359.29999999999995, 68.6%, 61.7%)" stroke-width="1.5"></path><path d="M792.36 702.87L557.53 662.93" stroke="hsl(359.29999999999995, 68.6%, 61.7%)" stroke-width="1.5"></path><path d="M979.05 247.01L979.05 247.01" stroke="hsl(359.29999999999995, 68.6%, 61.7%)" stroke-width="1.5"></path><path d="M979.05 247.01L938.52 343.51" stroke="hsl(359.29999999999995, 68.6%, 61.7%)" stroke-width="1.5"></path><path d="M979.05 247.01L1099.67 230.95" stroke="hsl(359.29999999999995, 68.6%, 61.7%)" stroke-width="1.5"></path><path d="M979.05 247.01L1120.02 388.55" stroke="hsl(359.29999999999995, 68.6%, 61.7%)" stroke-width="1.5"></path><path d="M938.52 343.51L938.52 343.51" stroke="hsl(359.29999999999995, 68.6%, 61.7%)" stroke-width="1.5"></path><path d="M938.52 343.51L992.89 491.28" stroke="hsl(359.29999999999995, 68.6%, 61.7%)" stroke-width="1.5"></path><path d="M938.52 343.51L1120.02 388.55" stroke="hsl(359.29999999999995, 68.6%, 61.7%)" stroke-width="1.5"></path><path d="M938.52 343.51L1099.67 230.95" stroke="hsl(359.29999999999995, 68.6%, 61.7%)" stroke-width="1.5"></path><path d="M938.52 343.51L860.01 546.24" stroke="hsl(359.29999999999995, 68.6%, 61.7%)" stroke-width="1.5"></path><path d="M992.89 491.28L992.89 491.28" stroke="hsl(359.29999999999995, 68.6%, 61.7%)" stroke-width="1.5"></path><path d="M992.89 491.28L1120.1 529.3" stroke="hsl(359.29999999999995, 68.6%, 61.7%)" stroke-width="1.5"></path><path d="M968.14 646.81L968.14 646.81" stroke="hsl(359.29999999999995, 68.6%, 61.7%)" stroke-width="1.5"></path><path d="M968.14 646.81L992.89 491.28" stroke="hsl(359.29999999999995, 68.6%, 61.7%)" stroke-width="1.5"></path><path d="M1146.03 62.17L1146.03 62.17" stroke="hsl(359.29999999999995, 68.6%, 61.7%)" stroke-width="1.5"></path><path d="M1146.03 62.17L1267.04 39.33" stroke="hsl(359.29999999999995, 68.6%, 61.7%)" stroke-width="1.5"></path><path d="M1146.03 62.17L1099.67 230.95" stroke="hsl(359.29999999999995, 68.6%, 61.7%)" stroke-width="1.5"></path><path d="M1146.03 62.17L1238.74 248.58" stroke="hsl(359.29999999999995, 68.6%, 61.7%)" stroke-width="1.5"></path><path d="M1146.03 62.17L1299.45 -103.73" stroke="hsl(359.29999999999995, 68.6%, 61.7%)" stroke-width="1.5"></path><path d="M1146.03 62.17L979.05 247.01" stroke="hsl(359.29999999999995, 68.6%, 61.7%)" stroke-width="1.5"></path><path d="M1099.67 230.95L1099.67 230.95" stroke="hsl(359.29999999999995, 68.6%, 61.7%)" stroke-width="1.5"></path><path d="M1099.67 230.95L1238.74 248.58" stroke="hsl(359.29999999999995, 68.6%, 61.7%)" stroke-width="1.5"></path><path d="M1099.67 230.95L1120.02 388.55" stroke="hsl(359.29999999999995, 68.6%, 61.7%)" stroke-width="1.5"></path><path d="M1120.02 388.55L1120.02 388.55" stroke="hsl(359.29999999999995, 68.6%, 61.7%)" stroke-width="1.5"></path><path d="M1120.02 388.55L1120.1 529.3" stroke="hsl(359.29999999999995, 68.6%, 61.7%)" stroke-width="1.5"></path><path d="M1299.45 -103.73L1299.45 -103.73" stroke="hsl(359.29999999999995, 68.6%, 61.7%)" stroke-width="1.5"></path><path d="M1299.45 -103.73L1410.3 -69.52" stroke="hsl(359.29999999999995, 68.6%, 61.7%)" stroke-width="1.5"></path><path d="M1299.45 -103.73L1267.04 39.33" stroke="hsl(359.29999999999995, 68.6%, 61.7%)" stroke-width="1.5"></path><path d="M1299.45 -103.73L1400.11 88.59" stroke="hsl(359.29999999999995, 68.6%, 61.7%)" stroke-width="1.5"></path><path d="M1267.04 39.33L1267.04 39.33" stroke="hsl(359.29999999999995, 68.6%, 61.7%)" stroke-width="1.5"></path><path d="M1267.04 39.33L1400.11 88.59" stroke="hsl(359.29999999999995, 68.6%, 61.7%)" stroke-width="1.5"></path><path d="M1238.74 248.58L1238.74 248.58" stroke="hsl(359.29999999999995, 68.6%, 61.7%)" stroke-width="1.5"></path><path d="M1308.95 655.61L1308.95 655.61" stroke="hsl(359.29999999999995, 68.6%, 61.7%)" stroke-width="1.5"></path><path d="M1308.95 655.61L1453.35 496.41" stroke="hsl(359.29999999999995, 68.6%, 61.7%)" stroke-width="1.5"></path><path d="M1308.95 655.61L1120.1 529.3" stroke="hsl(359.29999999999995, 68.6%, 61.7%)" stroke-width="1.5"></path><path d="M1308.95 655.61L1544.74 530.91" stroke="hsl(359.29999999999995, 68.6%, 61.7%)" stroke-width="1.5"></path><path d="M1308.95 655.61L1581.31 692.44" stroke="hsl(359.29999999999995, 68.6%, 61.7%)" stroke-width="1.5"></path><path d="M1308.95 655.61L1393.03 392.09" stroke="hsl(359.29999999999995, 68.6%, 61.7%)" stroke-width="1.5"></path><path d="M1410.3 -69.52L1410.3 -69.52" stroke="hsl(359.29999999999995, 68.6%, 61.7%)" stroke-width="1.5"></path><path d="M1410.3 -69.52L1568.1 -71.46" stroke="hsl(359.29999999999995, 68.6%, 61.7%)" stroke-width="1.5"></path><path d="M1410.3 -69.52L1400.11 88.59" stroke="hsl(359.29999999999995, 68.6%, 61.7%)" stroke-width="1.5"></path><path d="M1400.11 88.59L1400.11 88.59" stroke="hsl(359.29999999999995, 68.6%, 61.7%)" stroke-width="1.5"></path><path d="M1400.11 88.59L1461.63 229.64" stroke="hsl(359.29999999999995, 68.6%, 61.7%)" stroke-width="1.5"></path><path d="M1400.11 88.59L1589.12 110.6" stroke="hsl(359.29999999999995, 68.6%, 61.7%)" stroke-width="1.5"></path><path d="M1400.11 88.59L1576 201.72" stroke="hsl(359.29999999999995, 68.6%, 61.7%)" stroke-width="1.5"></path><path d="M1461.63 229.64L1461.63 229.64" stroke="hsl(359.29999999999995, 68.6%, 61.7%)" stroke-width="1.5"></path><path d="M1461.63 229.64L1576 201.72" stroke="hsl(359.29999999999995, 68.6%, 61.7%)" stroke-width="1.5"></path><path d="M1461.63 229.64L1589.12 110.6" stroke="hsl(359.29999999999995, 68.6%, 61.7%)" stroke-width="1.5"></path><path d="M1453.35 496.41L1453.35 496.41" stroke="hsl(359.29999999999995, 68.6%, 61.7%)" stroke-width="1.5"></path><path d="M1453.35 496.41L1544.74 530.91" stroke="hsl(359.29999999999995, 68.6%, 61.7%)" stroke-width="1.5"></path><path d="M1453.35 496.41L1555.91 409.39" stroke="hsl(359.29999999999995, 68.6%, 61.7%)" stroke-width="1.5"></path><path d="M1568.1 -71.46L1568.1 -71.46" stroke="hsl(359.29999999999995, 68.6%, 61.7%)" stroke-width="1.5"></path><path d="M1568.1 -71.46L1589.12 110.6" stroke="hsl(359.29999999999995, 68.6%, 61.7%)" stroke-width="1.5"></path><path d="M1568.1 -71.46L1400.11 88.59" stroke="hsl(359.29999999999995, 68.6%, 61.7%)" stroke-width="1.5"></path><path d="M1568.1 -71.46L1299.45 -103.73" stroke="hsl(359.29999999999995, 68.6%, 61.7%)" stroke-width="1.5"></path><path d="M1568.1 -71.46L1576 201.72" stroke="hsl(359.29999999999995, 68.6%, 61.7%)" stroke-width="1.5"></path><path d="M1589.12 110.6L1589.12 110.6" stroke="hsl(359.29999999999995, 68.6%, 61.7%)" stroke-width="1.5"></path><path d="M1589.12 110.6L1576 201.72" stroke="hsl(359.29999999999995, 68.6%, 61.7%)" stroke-width="1.5"></path><path d="M1589.12 110.6L1410.3 -69.52" stroke="hsl(359.29999999999995, 68.6%, 61.7%)" stroke-width="1.5"></path><path d="M1589.12 110.6L1555.91 409.39" stroke="hsl(359.29999999999995, 68.6%, 61.7%)" stroke-width="1.5"></path><path d="M1576 201.72L1576 201.72" stroke="hsl(359.29999999999995, 68.6%, 61.7%)" stroke-width="1.5"></path><path d="M1576 201.72L1555.91 409.39" stroke="hsl(359.29999999999995, 68.6%, 61.7%)" stroke-width="1.5"></path><path d="M1576 201.72L1393.03 392.09" stroke="hsl(359.29999999999995, 68.6%, 61.7%)" stroke-width="1.5"></path><path d="M1555.91 409.39L1555.91 409.39" stroke="hsl(359.29999999999995, 68.6%, 61.7%)" stroke-width="1.5"></path><path d="M1555.91 409.39L1544.74 530.91" stroke="hsl(359.29999999999995, 68.6%, 61.7%)" stroke-width="1.5"></path><path d="M1544.74 530.91L1544.74 530.91" stroke="hsl(359.29999999999995, 68.6%, 61.7%)" stroke-width="1.5"></path><path d="M1544.74 530.91L1581.31 692.44" stroke="hsl(359.29999999999995, 68.6%, 61.7%)" stroke-width="1.5"></path><path d="M1544.74 530.91L1298.98 370.93" stroke="hsl(359.29999999999995, 68.6%, 61.7%)" stroke-width="1.5"></path><path d="M1581.31 692.44L1581.31 692.44" stroke="hsl(359.29999999999995, 68.6%, 61.7%)" stroke-width="1.5"></path><path d="M1581.31 692.44L1453.35 496.41" stroke="hsl(359.29999999999995, 68.6%, 61.7%)" stroke-width="1.5"></path><path d="M1581.31 692.44L1555.91 409.39" stroke="hsl(359.29999999999995, 68.6%, 61.7%)" stroke-width="1.5"></path><circle r="25" cx="59.86" cy="534.58" fill="url(&quot;#SvgjsRadialGradient2703&quot;)"></circle><circle r="25" cx="531.24" cy="399.68" fill="url(&quot;#SvgjsRadialGradient2703&quot;)"></circle><circle r="25" cx="689.6" cy="399.19" fill="url(&quot;#SvgjsRadialGradient2703&quot;)"></circle><circle r="25" cx="811.07" cy="385.88" fill="url(&quot;#SvgjsRadialGradient2703&quot;)"></circle><circle r="25" cx="1120.1" cy="529.3" fill="url(&quot;#SvgjsRadialGradient2703&quot;)"></circle><circle r="25" cx="1150.92" cy="640.65" fill="url(&quot;#SvgjsRadialGradient2703&quot;)"></circle><circle r="25" cx="1298.98" cy="370.93" fill="url(&quot;#SvgjsRadialGradient2703&quot;)"></circle><circle r="25" cx="1393.03" cy="392.09" fill="url(&quot;#SvgjsRadialGradient2703&quot;)"></circle><circle r="5" cx="-50.48" cy="522.42" fill="#e69394"></circle><circle r="5" cx="-63.92" cy="694.51" fill="#e69394"></circle><circle r="5" cx="39.86" cy="694.27" fill="#e69394"></circle><circle r="5" cx="194.67" cy="496.23" fill="#e69394"></circle><circle r="5" cx="192.7" cy="654.83" fill="#e69394"></circle><circle r="5" cx="380.57" cy="493.39" fill="#e69394"></circle><circle r="5" cx="388.88" cy="709.5" fill="#e69394"></circle><circle r="5" cx="545.35" cy="542.58" fill="#e69394"></circle><circle r="5" cx="557.53" cy="662.93" fill="#e69394"></circle><circle r="5" cx="697.46" cy="543.6" fill="#e69394"></circle><circle r="5" cx="703.16" cy="679.62" fill="#e69394"></circle><circle r="5" cx="860.01" cy="546.24" fill="#e69394"></circle><circle r="5" cx="792.36" cy="702.87" fill="#e69394"></circle><circle r="5" cx="979.05" cy="247.01" fill="#e69394"></circle><circle r="5" cx="938.52" cy="343.51" fill="#e69394"></circle><circle r="5" cx="992.89" cy="491.28" fill="#e69394"></circle><circle r="5" cx="968.14" cy="646.81" fill="#e69394"></circle><circle r="5" cx="1146.03" cy="62.17" fill="#e69394"></circle><circle r="5" cx="1099.67" cy="230.95" fill="#e69394"></circle><circle r="5" cx="1120.02" cy="388.55" fill="#e69394"></circle><circle r="5" cx="1299.45" cy="-103.73" fill="#e69394"></circle><circle r="5" cx="1267.04" cy="39.33" fill="#e69394"></circle><circle r="5" cx="1238.74" cy="248.58" fill="#e69394"></circle><circle r="5" cx="1308.95" cy="655.61" fill="#e69394"></circle><circle r="5" cx="1410.3" cy="-69.52" fill="#e69394"></circle><circle r="5" cx="1400.11" cy="88.59" fill="#e69394"></circle><circle r="5" cx="1461.63" cy="229.64" fill="#e69394"></circle><circle r="5" cx="1453.35" cy="496.41" fill="#e69394"></circle><circle r="5" cx="1568.1" cy="-71.46" fill="#e69394"></circle><circle r="5" cx="1589.12" cy="110.6" fill="#e69394"></circle><circle r="5" cx="1576" cy="201.72" fill="#e69394"></circle><circle r="5" cx="1555.91" cy="409.39" fill="#e69394"></circle><circle r="5" cx="1544.74" cy="530.91" fill="#e69394"></circle><circle r="5" cx="1581.31" cy="692.44" fill="#e69394"></circle></g><defs><mask id="SvgjsMask2701"><rect width="1440" height="560" fill="#ffffff"></rect></mask><linearGradient x1="15.28%" y1="-39.29%" x2="84.72%" y2="139.29%" gradientUnits="userSpaceOnUse" id="SvgjsLinearGradient2702"><stop stop-color="rgba(14, 42, 71, 1)" offset="0.42"></stop><stop stop-color="rgba(20, 112, 166, 1)" offset="0.83"></stop></linearGradient><radialGradient id="SvgjsRadialGradient2703"><stop stop-color="#ffffff" offset="0.1"></stop><stop stop-color="rgba(204, 38, 40, 1)" offset="0.2"></stop><stop stop-color="rgba(204, 38, 40, 0)" offset="1"></stop></radialGradient></defs></svg>